<?xml version="1.0" encoding="utf-8"?>
<!-- Generator: Adobe Illustrator 26.0.3, SVG Export Plug-In . SVG Version: 6.00 Build 0)  -->
<svg version="1.1" id="レイヤー_1" xmlns="http://www.w3.org/2000/svg" xmlns:xlink="http://www.w3.org/1999/xlink" x="0px"
	 y="0px" viewBox="0 0 193.06 59.52" style="enable-background:new 0 0 193.06 59.52;" xml:space="preserve">
<style type="text/css">
	.st0{fill:#262626;}
</style>
<g>
	<path class="st0" d="M70.53,59.52l9.2-16.2l-9.15-27.99c4.75,0.01,8.93,3.05,10.41,7.56l3.78,11.58l7.89-13.66
		c1.95-3.38,5.59-5.48,9.49-5.48l2.29-0.01L82.15,54.07c-1.95,3.39-5.56,5.45-9.48,5.45H70.53z"/>
	<path class="st0" d="M105.07,24.17c0.65-4.79,4.66-8.5,9.44-8.83l-0.48,3.16l1.32-1c2.74-2.09,5.39-3.06,8.36-3.06
		c5.77,0,9.96,4.16,9.96,9.9c0,1.59-0.25,3.36-0.47,4.92l-1.42,10.61c-0.64,4.76-4.62,8.47-9.37,8.83l2.39-18.28
		c0.26-1.71,0.39-3.05,0.39-4.09c0-2.69-1.61-4.3-4.3-4.3c-2,0-4.23,1.11-5.69,2.83c-2.42,2.81-2.95,6.87-3.63,12.03l-0.4,2.98
		c-0.64,4.77-4.64,8.48-9.42,8.84L105.07,24.17z"/>
	<path class="st0" d="M153.06,48.7c-9.94,0-16.37-6.02-16.37-15.33c0-10.8,8.33-18.95,19.37-18.95c4.64,0,8.49,1.37,11.44,4.07
		c0.89,0.8,2.24,2.32,3.01,3.54c-1.37,1.42-3.08,2.03-5.63,2.03l-0.2,0c-1.26-0.02-3-0.45-4.16-1.02c-1.23-0.62-2.66-0.89-4.65-0.89
		c-7.37,0-11.22,5.46-11.22,10.85c0,5.11,3.39,8.29,8.84,8.29c1.99,0,3.75-0.33,5.69-1.08c0.03-0.01,1.88-0.75,3.12-0.86
		c0.36-0.03,0.72-0.05,1.06-0.05c2.37,0,4.11,0.82,5.31,2.5c-0.97,1.12-2.38,2.43-3.49,3.23l-0.38,0.17v0.08
		C161.49,47.52,157.44,48.7,153.06,48.7z"/>
	<path class="st0" d="M55.81,49.6c-1.86,0-4.73-0.63-6.64-2.02c-2.32-1.69-3.53-3.56-3.79-5.88c-0.31-2.79,0.78-4.56,1.88-5.62
		l0.41,0.5c1.79,2.4,4.31,4.44,6.41,5.19c0.67,0.26,1.29,0.38,1.89,0.38c2,0,3.51-1.16,3.51-2.69c0-0.92-0.64-1.92-1.76-2.75
		c-0.36-0.27-0.71-0.54-1.06-0.79l-0.64-0.47c-4.78-3.52-8.55-6.29-8.55-11.42c0-5.47,4.64-9.6,10.79-9.6c1.59,0,3.31,0.51,4.4,1
		c2.9,1.29,4.98,3.77,5.43,6.47c0.45,2.67-0.96,4.59-2.38,5.8l-0.39-0.6c-2.09-3.66-5.04-4.98-6.92-5c-1.68,0-2.68,0.7-2.69,1.86
		c0,0.76,0.51,1.56,1.45,2.26l1.51,1.09c5.07,3.68,9.08,6.59,9.08,12.11C67.73,44.35,63.56,49.6,55.81,49.6z"/>
	<g>
		<g>
			<g>
				<path class="st0" d="M187.29,12.22l1.79-0.99c1.13-0.58,1.93-1.57,2.29-2.79c0.39-1.24,0.25-2.51-0.36-3.64l-0.55-1.05
					l-6.01,3.23l0.08-2.04c0.03-1.27-0.44-2.48-1.3-3.42c-0.88-0.91-2.04-1.43-3.31-1.49L178.74,0l-0.19,6.81l-1.77-1.08
					c-2.23-1.38-5.16-0.69-6.54,1.54l-0.63,0.99l5.79,3.56l-1.82,0.99c-2.29,1.24-3.14,4.14-1.9,6.45l0.55,1.02l6.01-3.23
					l-0.08,2.07c-0.03,1.27,0.41,2.48,1.3,3.39c0.86,0.94,2.04,1.46,3.31,1.49l1.19,0.06l0.22-6.81l1.74,1.08
					c1.08,0.66,2.34,0.86,3.59,0.58c1.24-0.3,2.29-1.05,2.95-2.12l0.61-0.99L187.29,12.22z"/>
			</g>
		</g>
	</g>
	<g>
		<g>
			<g>
				<path class="st0" d="M0,49.6h2.72c4.21,0,8.06-2.3,10.06-6.01l1.95-3.63h17.43l0.23,0.94c1.23,5.01,5.63,8.55,10.77,8.7
					L31.96,4.51h-0.6c-4.2,0-8.18,2.19-10.18,5.89L0,49.6z M30.04,31.67H19.07l0.23-0.42l7.31-13.56L30.04,31.67z"/>
			</g>
		</g>
	</g>
</g>
</svg>
