<?xml version="1.0" encoding="utf-8"?>
<!-- Generator: Adobe Illustrator 26.0.3, SVG Export Plug-In . SVG Version: 6.00 Build 0)  -->
<svg version="1.1" id="レイヤー_1" xmlns="http://www.w3.org/2000/svg" xmlns:xlink="http://www.w3.org/1999/xlink" x="0px"
	 y="0px" viewBox="0 0 132.04 135.62" style="enable-background:new 0 0 132.04 135.62;" xml:space="preserve">
<style type="text/css">
	.st0{fill:#FF007D;}
</style>
<g>
	<g>
		<g>
			<path class="st0" d="M99.58,68.82l10.1-5.59c6.37-3.26,10.87-8.85,12.89-15.69c2.17-6.99,1.4-14.14-2.02-20.51l-3.11-5.9
				L83.58,39.3l0.47-11.5c0.15-7.15-2.49-13.98-7.3-19.26c-4.97-5.13-11.5-8.08-18.64-8.39L51.42,0l-1.09,38.37l-9.94-6.06
				c-12.58-7.77-29.05-3.88-36.82,8.7L0,46.6l32.62,20.04l-10.26,5.59c-12.89,6.99-17.71,23.3-10.72,36.35l3.11,5.75l33.87-18.18
				l-0.47,11.65c-0.16,7.15,2.33,13.98,7.3,19.11c4.82,5.28,11.5,8.23,18.64,8.39l6.68,0.31l1.24-38.37l9.79,6.06
				c6.06,3.73,13.2,4.82,20.19,3.26c6.99-1.71,12.89-5.9,16.62-11.96l3.42-5.59L99.58,68.82z"/>
		</g>
	</g>
</g>
</svg>
